<svg width="1435" height="221" viewBox="0 0 1435 221" fill="none" xmlns="http://www.w3.org/2000/svg">
<path d="M39.448 167.56C32.28 167.56 25.4533 167.048 18.968 166.024C12.4827 165.171 6.25333 163.72 0.28 161.672V121.736C4.376 123.443 8.984 124.723 14.104 125.576C19.224 126.429 24.344 126.856 29.464 126.856C38.68 126.856 45.2507 124.979 49.176 121.224C53.1013 117.469 55.064 111.24 55.064 102.536V0.135986H103.192V110.216C103.192 128.136 97.7307 142.216 86.808 152.456C76.056 162.525 60.2693 167.56 39.448 167.56ZM162.908 167.56C155.228 167.56 148.06 166.195 141.404 163.464C134.919 160.733 129.713 156.467 125.788 150.664C121.863 144.861 119.9 137.523 119.9 128.648C119.9 115.848 124.167 105.949 132.7 98.952C141.233 91.784 154.119 88.2 171.356 88.2H202.844V85.896C202.844 81.1173 200.881 77.6187 196.956 75.4C193.031 73.1813 186.119 72.072 176.22 72.072C162.225 72.072 148.401 74.2053 134.748 78.472V49.544C140.892 47.1547 148.572 45.192 157.788 43.656C167.004 41.9493 176.391 41.096 185.948 41.096C205.233 41.096 220.508 45.0213 231.772 52.872C243.036 60.7227 248.668 73.1813 248.668 90.248V165H206.684L204.38 155.272C200.113 159.027 194.567 162.013 187.74 164.232C181.084 166.451 172.807 167.56 162.908 167.56ZM179.292 139.4C184.753 139.4 189.361 138.461 193.116 136.584C197.041 134.707 200.284 132.403 202.844 129.672V114.568H179.548C168.967 114.568 163.676 118.749 163.676 127.112C163.676 135.304 168.881 139.4 179.292 139.4ZM270.52 165V43.656H315.064L316.344 53.384C321.635 49.8 327.523 46.8987 334.008 44.68C340.664 42.2907 347.917 41.096 355.768 41.096C363.619 41.096 369.763 42.2053 374.2 44.424C378.637 46.6427 382.221 49.8853 384.952 54.152C390.413 50.2267 396.557 47.0693 403.384 44.68C410.381 42.2907 418.573 41.096 427.96 41.096C442.125 41.096 452.536 44.8507 459.192 52.36C465.848 59.6987 469.176 70.9627 469.176 86.152V165H421.816V91.784C421.816 86.3227 420.707 82.4827 418.488 80.264C416.269 77.8747 412.6 76.68 407.48 76.68C400.824 76.68 395.363 79.0693 391.096 83.848C391.437 86.0667 391.608 88.2 391.608 90.248C391.608 92.1253 391.608 94.2587 391.608 96.648V165H347.064V91.016C347.064 86.0667 346.211 82.4827 344.504 80.264C342.797 77.8747 339.555 76.68 334.776 76.68C331.533 76.68 328.376 77.5333 325.304 79.24C322.232 80.9467 319.501 82.9947 317.112 85.384V165H270.52ZM555.312 167.56C531.077 167.56 513.157 162.184 501.552 151.432C490.117 140.68 484.4 124.979 484.4 104.328C484.4 83.848 490.203 68.232 501.808 57.48C513.413 46.5573 531.248 41.096 555.312 41.096C579.547 41.096 597.467 46.5573 609.072 57.48C620.848 68.232 626.736 83.848 626.736 104.328C626.736 124.979 620.933 140.68 609.328 151.432C597.723 162.184 579.717 167.56 555.312 167.56ZM555.312 132.488C563.163 132.488 568.795 130.269 572.208 125.832C575.792 121.395 577.584 114.227 577.584 104.328C577.584 94.6 575.792 87.5173 572.208 83.08C568.795 78.472 563.163 76.168 555.312 76.168C547.632 76.168 542.085 78.472 538.672 83.08C535.259 87.5173 533.552 94.6 533.552 104.328C533.552 114.227 535.259 121.395 538.672 125.832C542.085 130.269 547.632 132.488 555.312 132.488ZM644.77 165V43.656H689.826L691.106 52.872C695.714 49.8 701.773 47.0693 709.282 44.68C716.962 42.2907 725.154 41.096 733.858 41.096C749.047 41.096 760.141 44.8507 767.138 52.36C774.135 59.8693 777.634 71.4747 777.634 87.176V165H729.506V92.04C729.506 86.5787 728.311 82.6533 725.922 80.264C723.533 77.8747 719.351 76.68 713.378 76.68C709.794 76.68 706.039 77.5333 702.114 79.24C698.359 80.9467 695.287 82.9947 692.898 85.384V165H644.77ZM852.518 210.056C846.545 210.056 840.059 209.8 833.062 209.288C826.065 208.947 819.409 208.264 813.094 207.24C806.95 206.216 801.83 205.021 797.734 203.656V172.936C802.342 174.472 807.633 175.752 813.606 176.776C819.75 177.8 825.979 178.568 832.294 179.08C838.609 179.592 844.411 179.848 849.702 179.848C858.747 179.848 865.83 179.336 870.95 178.312C876.241 177.459 878.886 175.837 878.886 173.448C878.886 171.4 878.033 170.035 876.326 169.352C874.619 168.84 871.377 168.584 866.598 168.584H834.598C822.139 168.584 812.497 166.621 805.67 162.696C799.014 158.6 795.686 152.541 795.686 144.52C795.686 133.256 801.915 125.405 814.374 120.968C807.377 117.384 802.257 112.861 799.014 107.4C795.771 101.939 794.15 95.0267 794.15 86.664C794.15 70.9627 799.441 59.4427 810.022 52.104C820.774 44.7653 836.219 41.096 856.358 41.096C860.625 41.096 865.403 41.4373 870.694 42.12C875.985 42.632 879.825 43.144 882.214 43.656H929.83L928.806 72.84H912.678C915.75 76.7653 917.286 81.544 917.286 87.176C917.286 99.6347 913.617 109.533 906.278 116.872C899.11 124.04 887.761 127.624 872.23 127.624C870.011 127.624 867.622 127.539 865.062 127.368C862.502 127.027 860.113 126.771 857.894 126.6C854.139 126.941 850.897 127.624 848.166 128.648C845.435 129.672 844.07 131.379 844.07 133.768C844.07 135.475 844.838 136.669 846.374 137.352C847.91 137.864 850.043 138.12 852.774 138.12H880.678C893.137 138.12 902.95 141.021 910.118 146.824C917.286 152.627 920.87 161.16 920.87 172.424C920.87 184.371 915.323 193.587 904.23 200.072C893.137 206.728 875.899 210.056 852.518 210.056ZM856.614 101.256C864.123 101.256 869.329 99.976 872.23 97.416C875.131 94.856 876.582 90.5893 876.582 84.616C876.582 78.6427 875.131 74.2907 872.23 71.56C869.329 68.8293 864.123 67.464 856.614 67.464C849.617 67.464 844.497 68.8293 841.254 71.56C838.182 74.12 836.646 78.472 836.646 84.616C836.646 90.4187 838.097 94.6853 840.998 97.416C844.07 99.976 849.275 101.256 856.614 101.256ZM939.9 165V130.44H977.788V165H939.9ZM1033.66 167.56C1025.98 167.56 1018.81 166.195 1012.15 163.464C1005.67 160.733 1000.46 156.467 996.538 150.664C992.613 144.861 990.65 137.523 990.65 128.648C990.65 115.848 994.917 105.949 1003.45 98.952C1011.98 91.784 1024.87 88.2 1042.11 88.2H1073.59V85.896C1073.59 81.1173 1071.63 77.6187 1067.71 75.4C1063.78 73.1813 1056.87 72.072 1046.97 72.072C1032.98 72.072 1019.15 74.2053 1005.5 78.472V49.544C1011.64 47.1547 1019.32 45.192 1028.54 43.656C1037.75 41.9493 1047.14 41.096 1056.7 41.096C1075.98 41.096 1091.26 45.0213 1102.52 52.872C1113.79 60.7227 1119.42 73.1813 1119.42 90.248V165H1077.43L1075.13 155.272C1070.86 159.027 1065.32 162.013 1058.49 164.232C1051.83 166.451 1043.56 167.56 1033.66 167.56ZM1050.04 139.4C1055.5 139.4 1060.11 138.461 1063.87 136.584C1067.79 134.707 1071.03 132.403 1073.59 129.672V114.568H1050.3C1039.72 114.568 1034.43 118.749 1034.43 127.112C1034.43 135.304 1039.63 139.4 1050.04 139.4ZM1141.27 220.296V43.656H1183L1185.3 53.384C1190.25 49.4587 1195.63 46.472 1201.43 44.424C1207.4 42.2053 1214.32 41.096 1222.17 41.096C1240.26 41.096 1254.17 45.704 1263.89 54.92C1273.79 63.9653 1278.74 79.4107 1278.74 101.256C1278.74 122.931 1273.54 139.4 1263.13 150.664C1252.72 161.928 1238.38 167.56 1220.12 167.56C1208 167.56 1197.76 165.256 1189.4 160.648V220.296H1141.27ZM1207.83 132.488C1214.83 132.488 1220.2 130.013 1223.96 125.064C1227.71 120.115 1229.59 112.435 1229.59 102.024C1229.59 91.9547 1227.8 85.128 1224.21 81.544C1220.8 77.96 1215.51 76.168 1208.34 76.168C1201.17 76.168 1194.86 78.5573 1189.4 83.336V126.344C1192.13 128.392 1194.86 129.928 1197.59 130.952C1200.32 131.976 1203.73 132.488 1207.83 132.488ZM1296.77 220.296V43.656H1338.5L1340.8 53.384C1345.75 49.4587 1351.13 46.472 1356.93 44.424C1362.9 42.2053 1369.82 41.096 1377.67 41.096C1395.76 41.096 1409.67 45.704 1419.39 54.92C1429.29 63.9653 1434.24 79.4107 1434.24 101.256C1434.24 122.931 1429.04 139.4 1418.63 150.664C1408.22 161.928 1393.88 167.56 1375.62 167.56C1363.5 167.56 1353.26 165.256 1344.9 160.648V220.296H1296.77ZM1363.33 132.488C1370.33 132.488 1375.7 130.013 1379.46 125.064C1383.21 120.115 1385.09 112.435 1385.09 102.024C1385.09 91.9547 1383.3 85.128 1379.71 81.544C1376.3 77.96 1371.01 76.168 1363.84 76.168C1356.67 76.168 1350.36 78.5573 1344.9 83.336V126.344C1347.63 128.392 1350.36 129.928 1353.09 130.952C1355.82 131.976 1359.23 132.488 1363.33 132.488Z" fill="current"/>
</svg>
